<?xml version="1.0" encoding="iso-8859-1"?>
<!-- Generator: Adobe Illustrator 19.1.0, SVG Export Plug-In . SVG Version: 6.00 Build 0)  -->
<svg version="1.1" id="Capa_1" xmlns="http://www.w3.org/2000/svg" xmlns:xlink="http://www.w3.org/1999/xlink" x="0px" y="0px"
	 viewBox="0 0 358.855 358.855" style="enable-background:new 0 0 358.855 358.855;" xml:space="preserve">
<g>
	<g>
		<g>
			<path d="M184.277,358.855C82.666,358.855,0,276.189,0,174.579C0,105.365,38.261,42.608,99.851,10.796L120.751,0l-10.795,20.901
				C97.467,45.08,91.135,71.169,91.135,98.445c0,93.339,75.938,169.276,169.276,169.276c27.274,0,53.364-6.332,77.544-18.821
				l20.9-10.795l-10.795,20.901C316.249,320.595,253.491,358.855,184.277,358.855z M86.98,36.067
				C42.088,67.524,15,118.769,15,174.579c0,93.339,75.938,169.276,169.277,169.276c55.811,0,107.055-27.088,138.513-71.98
				c-19.912,7.207-40.805,10.846-62.379,10.846c-101.61,0-184.276-82.666-184.276-184.276C76.135,76.87,79.773,55.978,86.98,36.067z
				"/>
		</g>
	</g>
	<g>
	</g>
	<g>
	</g>
	<g>
	</g>
	<g>
	</g>
	<g>
	</g>
	<g>
	</g>
	<g>
	</g>
	<g>
	</g>
	<g>
	</g>
	<g>
	</g>
	<g>
	</g>
	<g>
	</g>
	<g>
	</g>
	<g>
	</g>
	<g>
	</g>
</g>
<g>
</g>
<g>
</g>
<g>
</g>
<g>
</g>
<g>
</g>
<g>
</g>
<g>
</g>
<g>
</g>
<g>
</g>
<g>
</g>
<g>
</g>
<g>
</g>
<g>
</g>
<g>
</g>
<g>
</g>
</svg>
