<svg viewBox="0 0 512 512" xmlns="http://www.w3.org/2000/svg"><path d="m437 0h-362c-41.398438 0-75 33.601562-75 75v362c0 41.398438 33.601562 75 75 75h362c41.398438 0 75-33.601562 75-75v-362c0-41.398438-33.601562-75-75-75zm0 0" fill="#ff5b5b"/><path d="m512 75v362c0 41.398438-33.601562 75-75 75h-181v-512h181c41.398438 0 75 33.601562 75 75zm0 0" fill="#ff3997"/><path d="m407 150c-24.8125 0-45-20.1875-45-45s20.1875-45 45-45 45 20.1875 45 45-20.1875 45-45 45zm0-60c-8.277344 0-15 6.722656-15 15s6.722656 15 15 15 15-6.722656 15-15-6.722656-15-15-15zm0 0" fill="#e2e2e7"/><path d="m256 120c-74.398438 0-135 60.597656-135 135 0 74.398438 60.601562 135 135 135s136-60.601562 136-135c0-74.402344-61.601562-135-136-135zm0 240c-57.898438 0-105-47.101562-105-105s47.101562-105 105-105 106 47.101562 106 105-48.101562 105-106 105zm0 0" fill="#ececf1"/><path d="m392 255c0 74.398438-61.601562 135-136 135v-30c57.898438 0 106-47.101562 106-105s-48.101562-105-106-105v-30c74.398438 0 136 60.597656 136 135zm0 0" fill="#e2e2e7"/></svg>