<svg viewBox="0 -47 512.00203 512" xmlns="http://www.w3.org/2000/svg"><path d="m191.011719 419.042969c-22.140625 0-44.929688-1.792969-67.855469-5.386719-40.378906-6.332031-81.253906-27.457031-92.820312-33.78125l-30.335938-16.582031 32.84375-10.800781c35.902344-11.808594 57.742188-19.132813 84.777344-30.601563-27.070313-13.109375-47.933594-36.6875-57.976563-67.171875l-7.640625-23.199219 6.265625.960938c-5.941406-5.988281-10.632812-12.066407-14.269531-17.597657-12.933594-19.640624-19.78125-43.648437-18.324219-64.214843l1.4375-20.246094 12.121094 4.695313c-5.113281-9.65625-8.808594-19.96875-10.980469-30.78125-5.292968-26.355469-.863281-54.359376 12.476563-78.851563l10.558593-19.382813 14.121094 16.964844c44.660156 53.648438 101.226563 85.472656 168.363282 94.789063-2.742188-18.902344-.6875-37.148438 6.113281-53.496094 7.917969-19.039063 22.003906-35.1875 40.722656-46.691406 20.789063-12.777344 46-18.96875 70.988281-17.433594 26.511719 1.625 50.582032 11.558594 69.699219 28.742187 9.335937-2.421874 16.214844-5.011718 25.511719-8.511718 5.59375-2.109375 11.9375-4.496094 19.875-7.230469l29.25-10.078125-19.074219 54.472656c1.257813-.105468 2.554687-.191406 3.910156-.253906l31.234375-1.414062-18.460937 25.234374c-1.058594 1.445313-1.328125 1.851563-1.703125 2.417969-1.488282 2.242188-3.339844 5.035157-28.679688 38.867188-6.34375 8.472656-9.511718 19.511719-8.921875 31.082031 2.246094 43.96875-3.148437 83.746094-16.042969 118.230469-12.195312 32.628906-31.09375 60.621093-56.164062 83.199219-31.023438 27.941406-70.582031 47.066406-117.582031 56.847656-23.054688 4.800781-47.8125 7.203125-73.4375 7.203125zm0 0" fill="#25d9f8"/><path d="m476.855469 57.628906 19.074219-54.476562-29.25 10.078125c-7.9375 2.734375-14.277344 5.125-19.875 7.230469-9.296876 3.503906-16.171876 6.09375-25.507813 8.515624-19.121094-17.183593-43.1875-27.117187-69.703125-28.746093-24.988281-1.535157-50.195312 4.65625-70.984375 17.433593-9.5625 5.878907-17.902344 12.96875-24.839844 21.03125v374.824219c2.917969-.523437 5.8125-1.082031 8.679688-1.679687 46.996093-9.78125 86.558593-28.910156 117.582031-56.847656 25.070312-22.582032 43.96875-50.574219 56.164062-83.199219 12.894532-34.484375 18.289063-74.265625 16.042969-118.234375-.59375-11.570313 2.574219-22.605469 8.921875-31.078125 25.335938-33.832031 27.191406-36.625 28.679688-38.867188.371094-.566406.644531-.976562 1.703125-2.421875l18.457031-25.230468-31.230469 1.414062c-1.355469.058594-2.65625.148438-3.914062.253906zm0 0" fill="#00c0f1"/></svg>