<?xml version="1.0" encoding="iso-8859-1"?>
<!-- Generator: Adobe Illustrator 19.0.0, SVG Export Plug-In . SVG Version: 6.00 Build 0)  -->
<svg version="1.1" id="Capa_1" xmlns="http://www.w3.org/2000/svg" xmlns:xlink="http://www.w3.org/1999/xlink" x="0px" y="0px"
	 viewBox="0 0 512 512" style="enable-background:new 0 0 512 512;" xml:space="preserve">
<path style="fill:#EEEEEE;" d="M1.811,397.594c0.37,1.436,0.84,2.83,1.309,4.21c1.266,3.684,2.802,7.241,4.736,10.569
	c0.015,0.028,0.015,0.072,0.03,0.072h0.007c9.856,16.939,27.989,28.444,48.996,28.444h398.222c21.006,0,39.14-11.506,48.996-28.444
	h0.007c0.014,0,0.014-0.044,0.028-0.059c1.92-3.314,3.456-6.87,4.722-10.54c0.484-1.408,0.953-2.816,1.323-4.267
	c0.341-1.294,0.597-2.602,0.839-3.91c0.556-3.068,0.955-6.173,0.975-9.431V384v-28.444v-28.444v-28.444v-28.444v-28.444v-28.444
	v-28.444v-28.444V128c0-3.314-0.398-6.528-0.981-9.671c-0.228-1.308-0.498-2.617-0.825-3.897c-0.384-1.465-0.853-2.887-1.337-4.295
	c-1.266-3.669-2.788-7.211-4.722-10.524c0-0.014-0.014-0.043-0.028-0.057h0.002c-9.856-16.939-27.989-28.444-48.996-28.444H256
	v28.444V128v28.444v28.444v28.444v28.444v28.444H0v28.444v28.444v28.444V384c0,3.313,0.402,6.512,0.97,9.654
	C1.212,394.977,1.484,396.3,1.811,397.594z"/>
<g>
	<path style="fill:#B22334;" d="M504.108,99.556c-9.856-16.939-27.989-28.444-48.996-28.444H256v28.444h248.107H504.108z"/>
	<polygon style="fill:#B22334;" points="0,384 512,384 512,355.556 0,355.556 0,384 	"/>
	<rect x="256" y="241.778" style="fill:#B22334;" width="256" height="28.444"/>
	<rect x="256" y="184.889" style="fill:#B22334;" width="256" height="28.444"/>
	<rect y="298.667" style="fill:#B22334;" width="512" height="28.444"/>
	<path style="fill:#B22334;" d="M455.111,440.889c21.006,0,39.14-11.506,48.996-28.444H7.893
		c9.856,16.939,27.989,28.444,48.996,28.444H455.111z"/>
	<rect x="256" y="128" style="fill:#B22334;" width="256" height="28.444"/>
</g>
<g>
	<path style="fill:#EEEEEE;" d="M0,128c0-3.314,0.427-6.5,0.967-9.657C0.398,121.486,0,124.686,0,128"/>
	<path style="fill:#EEEEEE;" d="M7.889,99.556c-0.014,0.028-0.028,0.043-0.028,0.071C7.875,99.598,7.875,99.584,7.889,99.556z"/>
	<path style="fill:#EEEEEE;" d="M1.816,114.409c0.356-1.451,0.853-2.83,1.308-4.224C2.655,111.579,2.186,112.973,1.816,114.409"/>
</g>
<path style="fill:#3C3B6E;" d="M256,71.111H56.889C25.472,71.111,0,96.583,0,128v142.222h256V71.111z"/>
<g>
	<path style="fill:#FFFFFF;" d="M28.465,109.872l8.789,6.386l-3.356,10.325l8.775-6.386l8.789,6.386l-3.371-10.325l8.804-6.386
		H46.029l-3.356-10.325l-3.342,10.325H28.465z"/>
	<path style="fill:#FFFFFF;" d="M56.909,138.316l8.789,6.386l-3.371,10.325l8.789-6.386l8.789,6.386l-3.371-10.325l8.804-6.386
		H74.473l-3.356-10.325l-3.342,10.325H56.909z"/>
	<path style="fill:#FFFFFF;" d="M113.798,138.316l8.789,6.386l-3.371,10.325l8.789-6.386l8.789,6.386l-3.371-10.325l8.804-6.386
		h-10.866l-3.356-10.325l-3.342,10.325H113.798z"/>
	<path style="fill:#FFFFFF;" d="M170.687,138.316l8.789,6.386l-3.371,10.325l8.789-6.386l8.789,6.386l-3.371-10.325l8.804-6.386
		h-10.866l-3.356-10.325l-3.342,10.325H170.687z"/>
	<path style="fill:#FFFFFF;" d="M56.909,195.208l8.789,6.386l-3.371,10.325l8.789-6.386l8.789,6.386l-3.371-10.325l8.804-6.386
		H74.473l-3.356-10.325l-3.342,10.325H56.909z"/>
	<path style="fill:#FFFFFF;" d="M113.798,195.208l8.789,6.386l-3.371,10.325l8.789-6.386l8.789,6.386l-3.371-10.325l8.804-6.386
		h-10.866l-3.356-10.325l-3.342,10.325H113.798z"/>
	<path style="fill:#FFFFFF;" d="M170.687,195.208l8.789,6.386l-3.371,10.325l8.789-6.386l8.789,6.386l-3.371-10.325l8.804-6.386
		h-10.866l-3.356-10.325l-3.342,10.325H170.687z"/>
	<path style="fill:#FFFFFF;" d="M85.353,109.872l8.789,6.386l-3.371,10.325l8.789-6.386l8.789,6.386l-3.371-10.325l8.804-6.386
		h-10.866l-3.356-10.325l-3.342,10.325H85.353z"/>
	<path style="fill:#FFFFFF;" d="M142.242,109.872l8.789,6.386l-3.371,10.325l8.789-6.386l8.789,6.386l-3.371-10.325l8.804-6.386
		h-10.866l-3.356-10.325l-3.342,10.325H142.242z"/>
	<path style="fill:#FFFFFF;" d="M199.131,109.872l8.789,6.386l-3.371,10.325l8.789-6.386l8.789,6.386l-3.371-10.325l8.804-6.386
		h-10.866l-3.356-10.325l-3.342,10.325H199.131z"/>
	<path style="fill:#FFFFFF;" d="M28.465,166.764l8.789,6.386l-3.356,10.325l8.775-6.386l8.789,6.386l-3.371-10.325l8.804-6.386
		H46.029l-3.356-10.325l-3.342,10.325H28.465z"/>
	<path style="fill:#FFFFFF;" d="M90.778,183.473l8.789-6.386l8.775,6.386l-3.356-10.325l8.789-6.386h-10.852l-3.356-10.311
		l-3.356,10.311H85.359l8.775,6.386L90.778,183.473z"/>
	<path style="fill:#FFFFFF;" d="M142.242,166.764l8.789,6.386l-3.371,10.325l8.789-6.386l8.789,6.386l-3.371-10.325l8.804-6.386
		h-10.866l-3.356-10.325l-3.342,10.325H142.242z"/>
	<path style="fill:#FFFFFF;" d="M199.131,166.764l8.789,6.386l-3.371,10.325l8.789-6.386l8.789,6.386l-3.371-10.325l8.804-6.386
		h-10.866l-3.356-10.325l-3.342,10.325H199.131z"/>
	<path style="fill:#FFFFFF;" d="M28.465,223.653l8.789,6.386l-3.356,10.325l8.775-6.386l8.789,6.386l-3.371-10.325l8.804-6.386
		H46.029l-3.356-10.325l-3.342,10.325L28.465,223.653L28.465,223.653z"/>
	<path style="fill:#FFFFFF;" d="M90.778,240.361l8.789-6.386l8.775,6.386l-3.356-10.325l8.789-6.386h-10.852l-3.356-10.311
		l-3.356,10.311H85.359l8.775,6.386L90.778,240.361z"/>
	<path style="fill:#FFFFFF;" d="M142.242,223.653l8.789,6.386l-3.371,10.325l8.789-6.386l8.789,6.386l-3.371-10.325l8.804-6.386
		h-10.866l-3.356-10.325l-3.342,10.325L142.242,223.653L142.242,223.653z"/>
	<path style="fill:#FFFFFF;" d="M199.131,223.653l8.789,6.386l-3.371,10.325l8.789-6.386l8.789,6.386l-3.371-10.325l8.804-6.386
		h-10.866l-3.356-10.325l-3.342,10.325L199.131,223.653L199.131,223.653z"/>
</g>
<g>
</g>
<g>
</g>
<g>
</g>
<g>
</g>
<g>
</g>
<g>
</g>
<g>
</g>
<g>
</g>
<g>
</g>
<g>
</g>
<g>
</g>
<g>
</g>
<g>
</g>
<g>
</g>
<g>
</g>
</svg>
